<svg width="26" height="26" viewBox="0 0 36 36" fill="none" xmlns="http://www.w3.org/2000/svg">
<path d="M22.4996 18L8.4401 32.0595C8.14462 32.3551 7.79382 32.5896 7.40773 32.7496C7.02164 32.9096 6.60781 32.9919 6.18988 32.992C5.34582 32.9922 4.53628 32.657 3.93935 32.0603C3.34241 31.4635 3.00698 30.6541 3.00684 29.81C3.0067 28.966 3.34186 28.1564 3.9386 27.5595L17.9996 13.5M26.9996 22.5L32.9996 16.5M32.2496 17.25L29.3786 14.379C28.816 13.8165 28.4998 13.0536 28.4996 12.258V11.742C28.4994 10.9464 28.1832 10.1835 27.6206 9.621L25.1351 7.1355C23.4478 5.44847 21.1596 4.50051 18.7736 4.5H13.4996L15.3641 6.3645C17.0515 8.05218 17.9995 10.341 17.9996 12.7275V15L20.9996 18H22.7576C23.5532 18.0002 24.3161 18.3164 24.8786 18.879L27.7496 21.75" stroke="white" stroke-width="2.5" stroke-linecap="round" stroke-linejoin="round"/>
</svg>